<?xml version="1.0" encoding="UTF-8"?>
<svg width="18px" height="16px" viewBox="0 0 18 16" version="1.1" xmlns="http://www.w3.org/2000/svg" xmlns:xlink="http://www.w3.org/1999/xlink">
    <!-- Generator: Sketch 52.4 (67378) - http://www.bohemiancoding.com/sketch -->
    <title>Data Source1</title>
    <desc>Created with Sketch.</desc>
    <defs>
        <polygon id="path-1" points="0.00150627615 0.0217619784 17.9950042 0.0217619784 17.9950042 15.9752952 0.00150627615 15.9752952"></polygon>
    </defs>
    <g id="Page-2" stroke="none" stroke-width="1" fill="none" fill-rule="evenodd">
        <g id="shujuyuanmoxing-copy-2">
            <mask id="mask-2" fill="white">
                <use xlink:href="#path-1"></use>
            </mask>
            <g id="Clip-2"></g>
            <path d="M8.54761506,12.2519691 L17.0048285,12.2519691 C17.5450795,12.2519691 17.9950042,12.6951468 17.9950042,13.3164019 L17.9950042,14.9108624 C17.9950042,15.4431406 17.5450795,15.9752952 17.0048285,15.9752952 L8.54761506,15.9752952 C8.00738912,15.9752952 7.55746444,15.5320927 7.55746444,14.9108624 L7.55746444,14.7328346 L1.88989958,14.7328346 C1.53040167,14.7328346 1.25924686,14.4677589 1.25924686,14.1117032 L1.25924686,3.74501391 L0.990150628,3.74501391 C0.449924686,3.74501391 0,3.21283462 0,2.68068006 L0,1.08609583 C0,0.464964451 0.449924686,0.0217619784 0.990150628,0.0217619784 L2.69924686,0.0217619784 C3.2394728,0.0217619784 3.68939749,0.464964451 3.68939749,1.08609583 L3.68939749,2.68068006 C3.68939749,3.21283462 3.2394728,3.74501391 2.69924686,3.74501391 L2.43015063,3.74501391 L2.43015063,7.46834003 L7.46912134,7.46834003 L7.46912134,7.29031221 C7.46912134,6.758034 7.91902092,6.22587944 8.45927197,6.22587944 L16.9164854,6.22587944 C17.4567113,6.22587944 17.906636,6.66908192 17.906636,7.29031221 L17.906636,8.8847728 C17.906636,9.417051 17.4567113,9.94920556 16.9164854,9.94920556 L8.45721339,9.94920556 C7.91696234,9.94920556 7.46713808,9.50602782 7.46713808,8.8847728 L7.46713808,8.70674498 L2.43015063,8.70674498 L2.43015063,13.5814529 L7.46912134,13.5814529 L7.46912134,13.3164019 C7.46713808,12.7841236 7.91696234,12.2519691 8.54761506,12.2519691 Z M17.0048285,3.74501391 L5.93871967,3.74501391 C5.30814226,3.74501391 4.85824268,3.21283462 4.85824268,2.68068006 L4.85824268,1.08609583 C4.85824268,0.464964451 5.30814226,0.0217619784 5.93871967,0.0217619784 L17.0048285,0.0217619784 C17.5450795,0.0217619784 17.9950042,0.464964451 17.9950042,1.08609583 L17.9950042,2.68068006 C17.9950042,3.21283462 17.5450795,3.74501391 17.0048285,3.74501391 Z" id="Fill-1" fill-opacity="0.6" fill="currentColor" mask="url(#mask-2)"></path>
        </g>
    </g>
</svg>