<?xml version="1.0" encoding="UTF-8"?>
<svg width="30px" height="30px" viewBox="0 0 30 30" version="1.1" xmlns="http://www.w3.org/2000/svg" xmlns:xlink="http://www.w3.org/1999/xlink">
    <!-- Generator: Sketch 52.4 (67378) - http://www.bohemiancoding.com/sketch -->
    <title>Delete1</title>
    <desc>Created with Sketch.</desc>
    <defs>
        <polygon id="path-1" points="0.00174273859 0.0270159292 13.9814979 0.0270159292 13.9814979 3.0176 0.00174273859 3.0176"></polygon>
    </defs>
    <g id="Page-2" stroke="none" stroke-width="1" fill="none" fill-rule="evenodd">
        <g id="Delete" transform="translate(1.000000, 1.000000)">
            <rect id="Rectangle-8" stroke="#E9EFEF" x="0" y="0" width="28" height="28" rx="4"></rect>
            <g id="weibiaoti544" transform="translate(7.000000, 6.000000)">
                <g id="Group-3">
                    <mask id="mask-2" fill="white">
                        <use xlink:href="#path-1"></use>
                    </mask>
                    <g id="Clip-2"></g>
                    <path d="M12.924527,1.25564602 L9.89332365,1.25564602 C9.89332365,0.699355752 9.449361,0.0270159292 8.90112448,0.0270159292 L5.42950207,0.0270159292 C4.88138174,0.0270159292 4.43739004,0.699355752 4.43739004,1.25564602 L1.40621577,1.25564602 C0.73726556,1.25564602 0,1.35311858 0,2.00665487 L0,3.0176 L13.9814979,3.0176 L13.9814979,2.00665487 C13.9814979,1.35311858 13.5944938,1.25564602 12.924527,1.25564602 Z" id="Fill-1" fill-opacity="0.6" fill="currentColor" mask="url(#mask-2)"></path>
                </g>
                <path d="M1.23647303,4.19990088 L1.23647303,13.8274549 C1.23647303,14.8064283 2.2209751,16 3.2249668,16 L11.1057469,16 C12.1110166,16 12.7688423,14.8064283 12.7688423,13.8274549 L12.7688423,4.19990088 L1.23647303,4.19990088 Z M3.33470124,14.0287717 L4.54790871,14.0287717 L4.54790871,5.50952212 L3.33470124,5.50952212 L3.33470124,14.0287717 Z M6.37371784,14.0287717 L7.58692531,14.0287717 L7.58692531,5.50952212 L6.37371784,5.50952212 L6.37371784,14.0287717 Z M9.41270539,14.0287717 L10.6259419,14.0287717 L10.6259419,5.50952212 L9.41270539,5.50952212 L9.41270539,14.0287717 Z" id="Fill-4" fill-opacity="0.6" fill="currentColor"></path>
            </g>
        </g>
    </g>
</svg>