<?xml version="1.0" encoding="UTF-8"?>
<svg width="30px" height="30px" viewBox="0 0 30 30" version="1.1" xmlns="http://www.w3.org/2000/svg" xmlns:xlink="http://www.w3.org/1999/xlink">
    <!-- Generator: Sketch 52.4 (67378) - http://www.bohemiancoding.com/sketch -->
    <title>edit1</title>
    <desc>Created with Sketch.</desc>
    <defs>
        <polygon id="path-1" points="0.001640625 0.00677248677 14 0.00677248677 14 15.9718377 0.001640625 15.9718377"></polygon>
    </defs>
    <g id="Page-2" stroke="none" stroke-width="1" fill="none" fill-rule="evenodd">
        <g id="Results" transform="translate(1.000000, 1.000000)">
            <g id="ribaobaogao" transform="translate(7.000000, 6.000000)">
                <mask id="mask-2" fill="white">
                    <use xlink:href="#path-1"></use>
                </mask>
                <g id="Clip-2"></g>
                <path d="M12.1800273,3.25753792 L13.0899727,3.25753792 C13.5800273,3.25753792 14,3.69097707 14,4.1966843 L14,15.0326631 C14,15.5382857 13.5800273,15.9718377 13.0899727,15.9718377 L4.20005469,15.9718377 C3.71,15.9718377 3.29,15.5382857 3.29,15.0326631 L3.29,14.0935168 L11.27,14.0935168 C11.7599453,14.0935168 12.1800273,13.6601058 12.1800273,13.1544832 L12.1800273,3.25753792 Z M0.910027344,0.00677248677 L9.79994531,0.00677248677 C10.29,0.00677248677 10.71,0.440183422 10.71,0.945918871 L10.71,11.7818977 C10.71,12.2875203 10.29,12.7209594 9.79994531,12.7209594 L0.910027344,12.7209594 C0.419972656,12.7209594 0,12.2875203 0,11.7818977 L0,0.945918871 C0,0.440183422 0.419972656,0.00677248677 0.910027344,0.00677248677 Z M2.73,2.60740741 C2.31,2.60740741 1.96,2.96863492 1.96,3.40204586 C1.96,3.83548501 2.31,4.1966843 2.73,4.1966843 L8.04994531,4.1966843 C8.47005469,4.1966843 8.81997266,3.83548501 8.81997266,3.40204586 C8.81997266,2.96863492 8.47005469,2.60740741 8.04994531,2.60740741 L2.73,2.60740741 Z M2.73,5.7136649 C2.31,5.7136649 1.96,6.07489242 1.96,6.50830335 C1.96,6.94185538 2.31,7.30297002 2.73,7.30297002 L8.04994531,7.30297002 C8.47005469,7.30297002 8.81997266,6.94185538 8.81997266,6.50830335 C8.81997266,6.07489242 8.47005469,5.7136649 8.04994531,5.7136649 L2.73,5.7136649 Z M2.73,8.74785185 C2.31,8.74785185 1.96,9.10896649 1.96,9.5424903 C1.96,9.97590123 2.31,10.3370159 2.73,10.3370159 L8.04994531,10.3370159 C8.47005469,10.3370159 8.81997266,9.97590123 8.81997266,9.5424903 C8.81997266,9.10896649 8.47005469,8.74785185 8.04994531,8.74785185 L2.73,8.74785185 Z" id="Fill-1" fill-opacity="0.6" fill="currentColor" mask="url(#mask-2)"></path>
            </g>
            <rect id="Rectangle-8" stroke="#E9EFEF" x="0" y="0" width="28" height="28" rx="4"></rect>
        </g>
    </g>
</svg>