<?xml version="1.0" encoding="UTF-8"?>
<svg width="16px" height="16px" viewBox="0 0 16 16" version="1.1" xmlns="http://www.w3.org/2000/svg" xmlns:xlink="http://www.w3.org/1999/xlink">
    <!-- Generator: Sketch 52.4 (67378) - http://www.bohemiancoding.com/sketch -->
    <title>Evebt1</title>
    <desc>Created with Sketch.</desc>
    <g id="Page-2" stroke="none" stroke-width="1" fill="none" fill-rule="evenodd" fill-opacity="0.6">
        <path d="M2.52633337,0 L13.4736666,0 C14.8688359,0 16,1.12319112 16,2.50875451 L16,13.488668 C16,14.8741293 14.8688359,15.9973204 13.4736666,15.9973204 L2.52633337,15.9973204 C1.13106133,15.9973204 0,14.8741293 0,13.488668 L0,2.50875451 C0,1.12319112 1.13106133,0 2.52633337,0 Z M12.8336693,11.746299 L3.15580096,11.746299 C2.80729374,11.746299 2.524687,12.0270968 2.524687,12.3735323 C2.524687,12.7198402 2.80729374,13.0006635 3.15580096,13.0006635 L12.8336693,13.0006635 C13.1822793,13.0006635 13.464886,12.7198402 13.464886,12.3735323 C13.464886,12.0270968 13.1822793,11.746299 12.8336693,11.746299 Z M12.8336693,7.56508405 L3.15580096,7.56508405 C2.80729374,7.56508405 2.524687,7.84590735 2.524687,8.19231734 C2.524687,8.53862524 2.80729374,8.81944854 3.15580096,8.81944854 L12.8336693,8.81944854 C13.1822793,8.81944854 13.464886,8.53862524 13.464886,8.19231734 C13.464886,7.84590735 13.1822793,7.56508405 12.8336693,7.56508405 Z M8.62590048,3.38386907 L3.15580096,3.38386907 C2.80729374,3.38386907 2.524687,3.66469237 2.524687,4.01100028 C2.524687,4.35741026 2.80729374,4.63823356 3.15580096,4.63823356 L8.62590048,4.63823356 C8.97451043,4.63823356 9.25711717,4.35741026 9.25711717,4.01100028 C9.25711717,3.66469237 8.97451043,3.38386907 8.62590048,3.38386907 Z" id="Combined-Shape-Copy-2" fill="currentColor"></path>
    </g>
</svg>