<?xml version="1.0" encoding="UTF-8"?>
<svg width="16px" height="16px" viewBox="0 0 16 16" version="1.1" xmlns="http://www.w3.org/2000/svg" xmlns:xlink="http://www.w3.org/1999/xlink">
    <!-- Generator: Sketch 52.4 (67378) - http://www.bohemiancoding.com/sketch -->
    <title>SQL Editor1</title>
    <desc>Created with Sketch.</desc>
    <g id="Page-2" stroke="none" stroke-width="1" fill="none" fill-rule="evenodd" fill-opacity="0.6">
        <g id="jiaobenbianji-copy-2" fill="currentColor">
            <path d="M14.2083382,0 C14.6793626,0 15.1311089,0.187082927 15.4642211,0.520221138 C15.7972553,0.853255285 15.9843382,1.30497561 15.9843382,1.77602602 L15.9843382,14.2083382 C15.9843382,14.6793626 15.7972553,15.1311089 15.4642211,15.4642211 C15.1311089,15.7972553 14.6793626,15.9843382 14.2083382,15.9843382 L1.77602602,15.9843382 C1.30497561,15.9843382 0.853255285,15.7972553 0.520221138,15.4642211 C0.187082927,15.1311089 0,14.6793626 0,14.2083382 L0,1.77602602 C0,0.795108943 0.795108943,0 1.77602602,0 L14.2083382,0 Z M5.3281561,4.22428618 L1.56027317,7.99216911 L5.3281561,11.760052 L6.58383089,10.5035447 L4.07245528,7.99216911 L6.58383089,5.48089756 L5.3281561,4.22428618 Z M10.6563122,4.22428618 L9.40061138,5.48089756 L11.9118829,7.99216911 L9.40061138,10.5035447 L10.6563122,11.760052 L14.4240911,7.99216911 L10.6563122,4.22428618 Z" id="Fill-1"></path>
        </g>
    </g>
</svg>