<?xml version="1.0" encoding="UTF-8"?>
<svg width="16px" height="16px" viewBox="0 0 16 16" version="1.1" xmlns="http://www.w3.org/2000/svg" xmlns:xlink="http://www.w3.org/1999/xlink">
    <!-- Generator: Sketch 52.4 (67378) - http://www.bohemiancoding.com/sketch -->
    <title>Table1</title>
    <desc>Created with Sketch.</desc>
    <g id="Page-2" stroke="none" stroke-width="1" fill="none" fill-rule="evenodd" fill-opacity="0.6">
        <path d="M5.89473814,16 L10.1052865,16 L10.1052865,6.24004635 L5.89473814,6.24004635 L5.89473814,16 Z M11.7894516,16 L14.3157362,16 C15.2420332,16 16,15.2000495 16,14.2222598 L16,6.22225984 L11.7894516,6.22225984 L11.7894516,16 Z M14.3157362,0 L1.68418975,0 C0.757868118,0 0,0.799976562 0,1.7777662 L0,4.44449363 L16,4.44449363 L16,1.7777662 C16,0.799976562 15.2420332,0 14.3157362,0 Z M0,14.2222598 C0,15.2000495 0.757868118,16 1.68418975,16 L4.21054839,16 L4.21054839,6.22225984 L0,6.22225984 L0,14.2222598 Z" id="table-(1)-copy" fill="currentColor"></path>
    </g>
</svg>